# Blender v2.68 (sub 0) OBJ File: 'AirHawk.blend'
# www.blender.org
mtllib AirHawk.mtl
o Plane
v 0.175792 -0.358572 -5.846856
v 0.249603 -0.358572 1.525587
v -0.261347 -0.358572 1.531405
v -0.086698 -0.358572 -5.846858
v 0.175792 0.358572 -5.858910
v 0.249603 0.204571 1.525590
v -0.261347 0.204571 1.531404
v -0.096363 0.358572 -5.858912
v 0.288913 -0.358572 1.485428
v -0.295183 -0.358572 1.485426
v 0.288913 0.358572 1.485430
v -0.295183 0.358572 1.485427
v -1.000000 -0.358572 -1.817745
v -1.000000 0.358572 -1.817744
v 1.000000 -0.358572 -1.817744
v 1.000000 0.358572 -1.817742
v 0.288913 1.403090 -0.437425
v -0.295183 1.403090 -0.437428
v -1.000000 1.403090 -1.817744
v 1.000000 1.403090 -1.817742
v -1.000000 -0.358572 -0.605007
v -1.000000 0.358572 -0.605006
v 1.000000 -0.358572 -0.605005
v 1.000000 0.358572 -0.605003
v -1.000000 1.403090 -1.310970
v 1.000000 1.403090 -1.310967
v -1.000000 -0.358572 -0.529389
v -1.000000 0.358572 -0.529388
v 1.000000 -0.358572 -0.532488
v 1.000000 0.358572 -0.532486
v -1.000000 1.403090 -1.245454
v 1.000000 1.403090 -1.245451
v -1.000000 -0.358572 -1.692688
v -1.000000 0.358572 -1.692688
v 1.000000 -0.358572 -1.692687
v 1.000000 0.358572 -1.692684
v -1.000000 1.403090 -1.765486
v 1.000000 1.403090 -1.765483
v 0.333373 -0.358572 -3.738907
v 0.074006 -0.358572 0.282748
v 0.038597 0.358572 -5.858910
v 0.074006 0.204571 0.282751
v 0.029230 -0.358572 0.242190
v 0.018527 0.358572 0.242192
v 0.333373 -0.358572 -2.682457
v 0.862805 0.358572 -1.817742
v 0.248845 1.403090 -0.437425
v 0.494899 0.320119 -3.072375
v 0.862805 -0.358572 -0.605005
v 0.862805 1.403090 -1.310967
v 0.029230 -0.358572 -1.775513
v 0.862805 1.403090 -1.245451
v 0.862805 -0.358572 -1.692687
v 0.494899 0.945222 -2.116718
v -0.325262 -0.358572 -3.738908
v -0.095752 -0.358572 0.287801
v 0.029613 0.358572 -5.858912
v -0.095752 0.204571 0.287800
v -0.049037 -0.358572 0.242189
v -0.325262 -0.358572 -2.682457
v -0.874024 -0.358572 -0.605007
v -0.049037 -0.358572 -1.772822
v -0.874023 -0.358572 -1.692688
v -0.038148 0.358572 0.242189
v -0.874024 0.358572 -1.817744
v -0.258392 1.403090 -0.437428
v -0.506118 0.320119 -3.072376
v -0.874024 1.403090 -1.310970
v -0.874024 1.403090 -1.245454
v -0.506118 0.945222 -2.116719
v 0.175792 0.102149 -4.603617
v 0.249603 0.003213 1.525589
v -0.261347 0.003213 1.531405
v -0.096363 0.102149 -4.603619
v 0.288913 0.102149 1.485429
v -0.295183 0.102149 1.485427
v -1.000000 0.102149 -1.817745
v 1.000000 0.102149 -1.817742
v 1.000000 0.102149 -0.605004
v -1.000000 0.102149 -0.605006
v 1.000000 0.102149 -0.532486
v -1.000000 0.102149 -0.529389
v -1.000000 0.102149 -1.692688
v 1.000000 0.102149 -1.692685
v 0.074006 0.003213 0.282750
v -0.095752 0.003213 0.287801
v 0.288913 -0.036067 1.485429
v -0.295183 -0.036067 1.485427
v -1.000000 -0.036067 -1.817745
v 1.000000 -0.036067 -1.817743
v 1.000000 -0.036067 -0.605004
v -1.000000 -0.036067 -0.605007
v 1.000000 -0.036067 -0.532487
v -1.000000 -0.036067 -0.529389
v -1.000000 -0.036067 -1.692688
v 1.000000 -0.036067 -1.692686
v 0.074006 -0.105323 0.282750
v -0.095752 -0.105323 0.287801
v 0.175792 -0.036067 -5.846855
v 0.249603 -0.105323 1.525588
v -0.261347 -0.105323 1.531405
v -0.096363 -0.036067 -5.846858
v 2.000000 0.102149 -0.605004
v 2.000000 0.102149 -1.692685
v 4.000000 -0.036067 -0.605004
v 4.000000 -0.036067 -1.692686
v -2.000000 0.102147 -0.605007
v -2.000000 0.102147 -1.692688
v -4.000000 -0.036069 -0.605007
v -4.000000 -0.036069 -1.692688
v 0.175792 -0.358570 -6.705542
v -0.086697 -0.358570 -6.705544
v 0.175793 0.358574 -6.705540
v -0.096363 0.358574 -6.705543
v 0.048262 -0.358570 -6.705542
v 0.038598 0.358574 -6.705541
v 0.039279 -0.358570 -6.705544
v 0.029614 0.358574 -6.705542
v 0.175793 0.102152 -6.705541
v -0.096362 0.102152 -6.705544
v 0.038598 0.102152 -6.705541
v 0.029614 0.102152 -6.705544
v 0.175793 -0.036065 -6.705541
v -0.096362 -0.036065 -6.705544
v 0.038597 -0.036065 -6.705542
v 0.029614 -0.036065 -6.705544
v 0.175792 1.023756 -6.688694
v -0.096363 1.023756 -6.688696
v 0.038597 1.023756 -6.688694
v 0.029613 1.023756 -6.688696
v 0.175793 1.023759 -6.705538
v -0.096363 1.023759 -6.705541
v 0.038598 1.023759 -6.705539
v 0.029614 1.023759 -6.705541
v 0.310304 -0.358574 1.577436
v 0.310304 0.204569 1.577439
v -0.255006 -0.358574 1.582489
v -0.255006 0.204569 1.582488
v 0.310304 0.003211 1.577438
v -0.255006 0.003211 1.582488
v 0.310304 -0.105325 1.577437
v -0.255006 -0.105325 1.582489
vn -0.000000 1.000000 -0.000000
vn 0.944090 0.265699 0.195187
vn 0.714628 -0.000002 0.699504
vn 0.991251 0.000000 0.131993
vn -0.975900 -0.000000 -0.218219
vn -0.000000 -0.999531 0.030634
vn 0.943154 -0.000001 0.332355
vn -0.805415 0.000000 0.592711
vn -1.000000 -0.000000 0.000000
vn 0.560318 -0.811519 -0.165772
vn -0.921219 0.333490 0.200351
vn 1.000000 0.000000 -0.000000
vn 0.679863 0.733339 0.000000
vn -0.943912 0.000000 0.330197
vn 0.909852 0.414932 0.000000
vn 0.000000 -1.000000 0.000000
vn -0.934691 0.291596 0.203282
vn -0.990166 -0.000001 0.139897
vn -0.000045 0.545379 0.838190
vn -0.671616 0.740899 -0.000000
vn -0.906275 0.422689 0.000000
vn -0.000051 0.283998 0.958825
vn -0.992519 -0.000000 -0.122086
vn 0.000001 0.869431 -0.494054
vn 0.927666 0.320394 0.191791
vn 0.714629 -0.000003 0.699503
vn -0.999551 -0.029955 -0.000001
vn -0.000000 1.000000 0.000003
vn 0.000000 0.780246 0.625473
vn 1.000000 -0.000001 0.000001
vn 0.714625 -0.000002 0.699508
vn -0.975259 -0.000000 -0.221067
vn -0.805416 0.000001 0.592710
vn -1.000000 -0.000001 0.000000
vn 0.979711 -0.000000 -0.200413
vn 0.000000 0.000001 -1.000000
vn 0.000003 0.000003 -1.000000
vn 0.000265 0.000009 -1.000000
vn 0.000008 0.000006 -1.000000
vn 0.000003 0.000004 -1.000000
vn 0.000159 0.000002 -1.000000
vn 0.000000 0.000003 -1.000000
vn 0.000003 -0.000000 -1.000000
vn 0.000265 0.000003 -1.000000
vn 0.000008 0.000002 -1.000000
vn 0.000000 1.000000 0.000142
vn 1.000000 -0.000000 0.000001
vn -1.000000 0.000000 -0.000001
vn 0.008934 -0.000004 0.999960
vn 0.008937 -0.000004 0.999960
vn 0.983749 0.000001 -0.179547
vn 0.000000 1.000000 0.000002
vn -0.992520 -0.000000 -0.122086
vn 0.940848 -0.314816 0.125281
vn 0.714634 -0.000003 0.699498
vn -0.525109 -0.833816 -0.170326
vn -0.930501 -0.000000 -0.366289
vn -0.805415 0.000000 0.592712
vn 0.979829 0.000000 -0.199839
vn -0.000003 0.878723 0.477333
vn 0.000000 0.869431 -0.494055
vn -0.943912 -0.000001 0.330197
vn 0.360549 0.780581 -0.510585
vn -0.943095 -0.304660 0.133247
vn 0.927646 0.000000 -0.373460
vn -0.000005 0.545371 0.838195
vn 0.000001 0.869431 -0.494055
vn -0.353550 0.782820 -0.512049
vn 0.028675 0.264225 0.964035
vn -0.000002 0.878723 0.477333
vn 0.714630 -0.000003 0.699502
vn -0.975344 -0.029229 -0.218747
vn -0.805420 -0.000001 0.592704
vn 0.979711 0.000001 -0.200413
vn 0.000000 0.000002 -1.000000
vn 0.000265 0.000006 -1.000000
vn 0.000004 0.000003 -1.000000
vn 1.000000 0.000066 0.000053
vn -1.000000 -0.000066 -0.000053
vn 0.000007 0.000002 -1.000000
vn 1.000000 0.000071 0.000057
vn 0.008932 0.000001 0.999960
vn 0.008935 0.000001 0.999960
vn 0.000001 -1.000000 0.000000
vn 0.068944 0.997621 0.000000
vn 0.000000 -0.000003 1.000000
vn 0.000000 0.000004 -1.000000
vn -0.068944 0.997621 0.000000
vn -0.000000 -0.000001 1.000000
vn -0.000002 1.000000 -0.000000
vn -0.000000 0.000001 1.000000
vn 0.000000 -0.000001 -1.000000
vn -0.920620 0.220780 0.322049
vn 0.919783 0.221237 0.324120
vn 0.000001 0.836869 -0.547403
vn -0.010896 -0.288257 -0.957491
vn -0.480052 0.770851 0.418735
vn 0.476785 0.772415 0.419585
vn 0.000006 -0.252338 -0.967639
vn 0.000003 -0.878723 -0.477333
vn 1.000000 0.000002 0.000000
vn -1.000000 0.000009 -0.000001
vn -1.000000 -0.000003 -0.000000
vn -0.975761 0.000000 -0.218841
vn -0.805415 0.000001 0.592711
vn 0.349872 0.931061 -0.103510
vn 1.000000 -0.000011 0.000001
vn 0.008935 -0.000005 0.999960
vn -0.322452 0.940790 -0.104592
vn -0.805417 0.000000 0.592709
vn 1.000000 -0.000001 0.000000
vn 0.008934 0.000001 0.999960
vn 0.983749 0.000003 -0.179547
vn 0.000083 -1.000000 0.000009
vn -0.000000 -1.000000 -0.000002
vn -0.000038 -1.000000 0.000003
vn 0.000000 -1.000000 -0.000001
vn -0.000000 -1.000000 -0.000003
usemtl Body
s off
f 59//1 56//1 10//1
f 64//2 12//2 7//2
f 75//3 11//3 72//3
f 86//4 58//4 73//4
f 77//5 14//5 8//5
f 65//6 14//6 67//6
f 81//7 30//7 11//7
f 73//8 7//8 76//8
f 83//9 34//9 77//9
f 57//1 8//1 14//1
f 71//10 5//10 78//10
f 69//1 31//1 66//1
f 44//11 11//11 47//11
f 36//12 16//12 20//12
f 84//12 36//12 24//12
f 82//9 28//9 80//9
f 70//13 37//13 25//13
f 30//12 24//12 26//12
f 61//1 62//1 21//1
f 79//12 24//12 30//12
f 68//1 25//1 69//1
f 22//9 28//9 25//9
f 76//14 12//14 82//14
f 80//9 22//9 83//9
f 78//12 16//12 36//12
f 67//15 19//15 37//15
f 14//9 34//9 19//9
f 9//16 2//16 43//16
f 11//17 44//17 6//17
f 72//18 6//18 85//18
f 16//6 46//6 48//6
f 5//1 41//1 16//1
f 32//1 52//1 47//1
f 64//19 44//19 47//19
f 38//20 54//20 26//20
f 23//16 29//16 49//16
f 26//1 50//1 32//1
f 20//21 48//21 38//21
f 43//16 40//16 56//16
f 44//22 64//22 58//22
f 98//23 56//23 137//23
f 51//16 43//16 59//16
f 46//6 65//6 67//6
f 52//1 69//1 47//1
f 54//24 70//24 50//24
f 49//1 51//1 62//1
f 50//1 68//1 52//1
f 12//25 64//25 66//25
f 87//26 75//26 100//26
f 98//4 86//4 101//4
f 4//27 102//27 124//27
f 95//9 83//9 89//9
f 91//12 79//12 81//12
f 90//12 78//12 84//12
f 100//18 72//18 97//18
f 57//28 41//28 118//28
f 41//29 5//29 129//29
f 99//30 1//30 123//30
f 9//31 87//31 2//31
f 56//4 98//4 3//4
f 13//32 89//32 4//32
f 29//7 93//7 87//7
f 3//33 101//33 88//33
f 33//34 95//34 13//34
f 1//35 99//35 15//35
f 35//12 96//12 91//12
f 27//34 94//34 21//34
f 23//12 91//12 93//12
f 10//14 88//14 27//14
f 21//34 92//34 33//34
f 15//12 90//12 96//12
f 2//18 100//18 40//18
f 126//36 117//36 124//36
f 123//37 111//37 125//37
f 125//38 115//38 126//38
f 118//39 122//39 114//39
f 113//40 119//40 116//40
f 116//41 121//41 118//41
f 122//42 126//42 120//42
f 119//43 123//43 125//43
f 121//44 125//44 122//44
f 118//45 114//45 134//45
f 129//46 127//46 131//46
f 128//46 130//46 134//46
f 57//47 118//47 134//47
f 116//48 41//48 133//48
f 113//37 116//37 131//37
f 114//48 8//48 132//48
f 5//47 113//47 131//47
f 8//29 57//29 128//29
f 139//49 136//49 140//49
f 135//50 141//50 137//50
f 40//51 97//51 141//51
f 42//52 58//52 136//52
f 85//51 42//51 136//51
f 58//53 86//53 140//53
f 56//16 3//16 10//16
f 58//54 64//54 7//54
f 11//55 6//55 72//55
f 58//4 7//4 73//4
f 74//56 77//56 8//56
f 14//57 19//57 67//57
f 75//7 81//7 11//7
f 7//58 12//58 76//58
f 34//9 14//9 77//9
f 65//1 57//1 14//1
f 5//59 16//59 78//59
f 31//1 18//1 66//1
f 11//60 17//60 47//60
f 38//12 36//12 20//12
f 79//12 84//12 24//12
f 28//9 22//9 80//9
f 68//61 70//61 25//61
f 32//12 30//12 26//12
f 62//16 27//16 21//16
f 81//12 79//12 30//12
f 25//1 31//1 69//1
f 28//9 31//9 25//9
f 12//62 28//62 82//62
f 22//9 34//9 83//9
f 84//12 78//12 36//12
f 70//63 67//63 37//63
f 34//9 37//9 19//9
f 2//1 40//1 43//1
f 44//64 42//64 6//64
f 6//18 42//18 85//18
f 20//65 16//65 48//65
f 41//1 46//1 16//1
f 17//1 32//1 47//1
f 66//66 64//66 47//66
f 54//67 50//67 26//67
f 29//1 51//1 49//1
f 50//1 52//1 32//1
f 48//68 54//68 38//68
f 59//16 43//16 56//16
f 42//69 44//69 58//69
f 142//53 98//53 137//53
f 62//16 51//16 59//16
f 48//6 46//6 67//6
f 69//1 66//1 47//1
f 70//24 68//24 50//24
f 61//1 49//1 62//1
f 68//1 69//1 52//1
f 18//70 12//70 66//70
f 75//71 72//71 100//71
f 86//4 73//4 101//4
f 112//27 4//27 124//27
f 83//9 77//9 89//9
f 93//12 91//12 81//12
f 96//12 90//12 84//12
f 72//18 85//18 97//18
f 41//28 116//28 118//28
f 5//29 127//29 129//29
f 1//30 111//30 123//30
f 87//26 100//26 2//26
f 98//4 101//4 3//4
f 89//72 102//72 4//72
f 9//7 29//7 87//7
f 10//73 3//73 88//73
f 95//34 89//34 13//34
f 99//74 90//74 15//74
f 23//12 35//12 91//12
f 94//34 92//34 21//34
f 29//12 23//12 93//12
f 88//62 94//62 27//62
f 92//34 95//34 33//34
f 35//12 15//12 96//12
f 100//18 97//18 40//18
f 117//36 112//36 124//36
f 111//36 115//36 125//36
f 115//38 117//38 126//38
f 122//75 120//75 114//75
f 119//75 121//75 116//75
f 121//76 122//76 118//76
f 126//42 124//42 120//42
f 121//42 119//42 125//42
f 125//44 126//44 122//44
f 114//77 132//77 134//77
f 133//46 129//46 131//46
f 132//46 128//46 134//46
f 130//78 57//78 134//78
f 41//79 129//79 133//79
f 116//80 133//80 131//80
f 8//79 128//79 132//79
f 127//81 5//81 131//81
f 57//29 130//29 128//29
f 136//82 138//82 140//82
f 141//83 142//83 137//83
f 135//51 40//51 141//51
f 58//52 138//52 136//52
f 139//51 85//51 136//51
f 138//53 58//53 140//53
usemtl Wings
f 91//16 96//16 105//16
f 95//84 92//84 110//84
f 106//85 104//85 105//85
f 84//1 79//1 104//1
f 79//86 91//86 105//86
f 96//87 84//87 106//87
f 109//88 107//88 110//88
f 92//89 80//89 107//89
f 83//36 95//36 108//36
f 80//90 83//90 107//90
f 96//16 106//16 105//16
f 92//84 109//84 110//84
f 104//85 103//85 105//85
f 79//1 103//1 104//1
f 103//86 79//86 105//86
f 84//87 104//87 106//87
f 107//88 108//88 110//88
f 109//91 92//91 107//91
f 95//92 110//92 108//92
f 83//90 108//90 107//90
usemtl Glass
f 28//93 12//93 31//93
f 34//9 22//9 37//9
f 11//94 30//94 32//94
f 24//12 36//12 38//12
f 48//95 67//95 54//95
f 6//96 7//96 12//96
f 12//97 18//97 31//97
f 22//9 25//9 37//9
f 17//98 11//98 32//98
f 26//12 24//12 38//12
f 67//95 70//95 54//95
f 11//99 6//99 12//99
f 17//100 11//100 12//100
f 47//100 17//100 12//100
f 18//100 47//100 12//100
usemtl Sides
f 5//101 71//101 119//101
f 102//102 74//102 124//102
f 74//103 8//103 120//103
f 89//104 77//104 102//104
f 93//7 81//7 87//7
f 101//105 73//105 76//105
f 99//106 71//106 78//106
f 94//34 82//34 92//34
f 88//14 76//14 94//14
f 71//107 99//107 123//107
f 86//53 98//53 140//53
f 141//108 139//108 142//108
f 97//51 85//51 139//51
f 113//47 5//47 119//47
f 74//9 120//9 124//9
f 8//48 114//48 120//48
f 77//109 74//109 102//109
f 81//7 75//7 87//7
f 88//110 101//110 76//110
f 90//74 99//74 78//74
f 82//34 80//34 92//34
f 76//62 82//62 94//62
f 119//111 71//111 123//111
f 98//53 142//53 140//53
f 139//112 140//112 142//112
f 141//113 97//113 139//113
usemtl Bottom
f 62//16 59//16 27//16
f 55//16 60//16 13//16
f 63//16 61//16 33//16
f 60//16 63//16 33//16
f 29//16 9//16 43//16
f 1//16 15//16 39//16
f 35//16 23//16 53//16
f 15//16 35//16 45//16
f 39//16 45//16 55//16
f 41//1 57//1 65//1
f 53//16 49//16 63//16
f 45//16 53//16 63//16
f 55//114 4//114 117//114
f 56//115 40//115 135//115
f 1//116 39//116 115//116
f 39//117 55//117 115//117
f 59//16 10//16 27//16
f 4//16 55//16 13//16
f 61//16 21//16 33//16
f 13//16 60//16 33//16
f 51//16 29//16 43//16
f 15//16 45//16 39//16
f 23//16 49//16 53//16
f 35//16 53//16 45//16
f 45//16 60//16 55//16
f 46//1 41//1 65//1
f 49//16 61//16 63//16
f 60//16 45//16 63//16
f 4//118 112//118 117//118
f 137//115 56//115 135//115
f 111//118 1//118 115//118
f 55//117 117//117 115//117
